<?xml version="1.0" encoding="UTF-8" standalone="no"?>
<!-- Created with Inkscape (http://www.inkscape.org/) -->

<svg
   xmlns:dc="http://purl.org/dc/elements/1.1/"
   xmlns:cc="http://creativecommons.org/ns#"
   xmlns:rdf="http://www.w3.org/1999/02/22-rdf-syntax-ns#"
   xmlns:svg="http://www.w3.org/2000/svg"
   xmlns="http://www.w3.org/2000/svg"
   xmlns:sodipodi="http://sodipodi.sourceforge.net/DTD/sodipodi-0.dtd"
   xmlns:inkscape="http://www.inkscape.org/namespaces/inkscape"
   width="240"
   height="50"
   viewBox="0 0 240 50.000001"
   id="svg4163"
   version="1.1"
   inkscape:version="0.91 r13725"
   sodipodi:docname="logo_texto50x250.svg">
  <defs
     id="defs4165" />
  <sodipodi:namedview
     id="base"
     pagecolor="#ffffff"
     bordercolor="#666666"
     borderopacity="1.0"
     inkscape:pageopacity="0.0"
     inkscape:pageshadow="2"
     inkscape:zoom="2.8"
     inkscape:cx="73.397207"
     inkscape:cy="23.399518"
     inkscape:document-units="px"
     inkscape:current-layer="layer1"
     showgrid="false"
     units="px"
     inkscape:window-width="1366"
     inkscape:window-height="715"
     inkscape:window-x="-8"
     inkscape:window-y="-8"
     inkscape:window-maximized="1" />
  <metadata
     id="metadata4168">
    <rdf:RDF>
      <cc:Work
         rdf:about="">
        <dc:format>image/svg+xml</dc:format>
        <dc:type
           rdf:resource="http://purl.org/dc/dcmitype/StillImage" />
        <dc:title />
      </cc:Work>
    </rdf:RDF>
  </metadata>
  <g
     inkscape:label="Capa 1"
     inkscape:groupmode="layer"
     id="layer1"
     transform="translate(0,-1002.3621)">
    <g
       style="stroke:none;stroke-width:3.83999991;stroke-miterlimit:4;stroke-dasharray:none;stroke-opacity:1"
       id="g6310"
       transform="matrix(0.26041667,0,0,0.26041667,0,778.30944)">
      <g
         style="stroke:none;stroke-width:3.83999991;stroke-miterlimit:4;stroke-dasharray:none;stroke-opacity:1"
         transform="translate(2.1786369e-6,180.31223)"
         id="g6299">
        <g
           style="stroke:none;stroke-width:4.51200008;stroke-miterlimit:4;stroke-dasharray:none;stroke-opacity:1"
           id="g6242"
           transform="matrix(0.85106383,0,0,0.85106383,9.2627847,-27.263508)" />
        <g
           style="stroke:none;stroke-width:4.51200008;stroke-miterlimit:4;stroke-dasharray:none;stroke-opacity:1"
           id="g6247"
           transform="matrix(0.85106383,0,0,0.85106383,118.19895,-27.263508)">
          <path
             id="rect6253"
             style="fill:#1565c0;fill-opacity:1;stroke:none;stroke-width:4.51200008;stroke-miterlimit:4;stroke-dasharray:none;stroke-opacity:1"
             d="m 9.0809469,916.75769 57.6705631,0 0,37.67056 -57.6705631,0 z m 0,43.68359 57.6705631,0 0,37.67057 -57.6705631,0 z m 0,43.68362 57.6705631,0 0,37.6705 -57.6705631,0 z m -127.9999969,-87.36721 57.670566,0 0,37.67056 -57.670566,0 z m 0,43.68359 57.670566,0 0,37.67057 -57.670566,0 z m 0,43.68362 57.670566,0 0,37.6705 -57.670566,0 z" />
        </g>
      </g>
    </g>
    <path
       id="text4765"
       style="font-style:normal;font-weight:normal;font-size:41.22912598px;line-height:125%;font-family:sans-serif;letter-spacing:0px;word-spacing:0px;fill:#ef5350;fill-opacity:1;stroke:none;stroke-width:1;stroke-linecap:butt;stroke-linejoin:miter;stroke-miterlimit:4;stroke-dasharray:none;stroke-opacity:1"
       d="m 232.06641,1026.5144 c -2.71173,0 -4.59739,0.747 -5.65625,2.2403 -1.03304,1.4621 -1.66601,2.6289 -1.89844,3.5 -0.23243,0.8711 -0.34766,2.3492 -0.34766,4.4336 0,1.3999 -0.25887,2.3952 -0.77539,2.9863 -0.49069,0.56 -1.3183,0.8398 -2.48047,0.8398 l -0.30859,0 0,9.0059 0.96875,0 c 1.18799,0 2.15534,-0.077 2.9043,-0.2324 0.74895,-0.1556 2.00164,-0.7311 3.75781,-1.7266 1.78199,-1.0266 2.78905,-3.0645 3.02148,-6.1133 0.23244,-3.0798 0.52906,-4.8379 0.89063,-5.2734 0.36156,-0.4666 1.04747,-0.7012 2.05469,-0.7012 l 0,-8.959 -2.13086,0 z m -137.667972,-1.5781 0,12.8379 c -10e-7,3.6631 0.81622,6.5776 2.447265,8.7422 1.631045,2.1646 3.813947,3.2461 6.550777,3.2461 2.51568,0 4.6451,-1.0815 6.38672,-3.2461 1.74163,-2.1646 2.61133,-4.8286 2.61133,-7.9922 l 0,-13.5879 -7.58789,0 0,13.7383 c 0,0.6327 -0.13761,1.1473 -0.41406,1.5469 -0.24881,0.3663 -0.58142,0.5508 -0.9961,0.5508 -0.93992,0 -1.41015,-0.6991 -1.41015,-2.0977 l 0,-13.7383 -7.587892,0 z m 92.896482,-0.3496 0,24.3262 7.58789,0 0,-24.3262 -7.58789,0 z m 21.44141,-0.498 c -2.87506,0 -5.35047,1.2155 -7.42383,3.6464 -2.07336,2.431 -3.10938,5.3611 -3.10938,8.7911 0,3.6298 1.00928,6.6938 3.02735,9.1914 2.04572,2.4642 4.56123,3.6953 7.54687,3.6953 2.87507,0 5.32178,-1.132 7.33985,-3.3965 2.04571,-2.2978 3.06836,-5.1773 3.06836,-8.6406 l -7.50586,0.3496 c -0.5529,1.7982 -1.46467,2.6972 -2.73633,2.6972 -0.91228,0 -1.65969,-0.3495 -2.24024,-1.0488 -0.55289,-0.7326 -0.82812,-1.6316 -0.82812,-2.6972 0,-1.0657 0.27523,-1.9317 0.82812,-2.5977 0.5529,-0.666 1.25825,-1 2.11524,-1 1.02286,0 1.86582,0.5165 2.5293,1.5488 l 7.67187,-0.3496 c -0.46996,-2.9971 -1.67228,-5.4456 -3.60742,-7.3437 -1.90749,-1.8982 -4.13246,-2.8457 -6.67578,-2.8457 z m -50.29492,0 c -2.958,0 -5.46015,1.231 -7.50586,3.6953 -2.01808,2.4309 -3.02735,5.429 -3.02735,8.9922 0,3.6298 1.00927,6.6433 3.02735,9.041 2.01807,2.3976 4.54696,3.5957 7.58789,3.5957 0.46996,0 1.03769,-0.066 1.70117,-0.1992 l 0,-9.3907 c -0.63583,0.3996 -1.24563,0.5996 -1.82617,0.5996 -0.82935,0 -1.506,-0.3339 -2.03125,-1 -0.52525,-0.666 -0.78711,-1.4815 -0.78711,-2.4472 0,-0.9657 0.29055,-1.7987 0.87109,-2.4981 0.58054,-0.6993 1.27057,-1.0488 2.07227,-1.0488 0.88463,0 1.57661,0.3825 2.07422,1.1484 0.52525,0.7327 0.78711,1.7657 0.78711,3.0977 l 0,11.2383 7.58789,0 0,-11.9375 c 0,-3.9961 -0.93851,-7.1437 -2.81836,-9.4414 -1.87985,-2.2978 -4.4508,-3.4453 -7.71289,-3.4453 z m -33.77149,0 c -2.15629,0 -4.00853,0.965 -5.55664,2.8964 -1.52046,1.8982 -2.28125,4.2127 -2.28125,6.9434 l 0,14.9844 7.58985,0 0,-13.086 c -1e-5,-1.8315 0.41479,-2.748 1.24414,-2.748 0.4976,0 0.82827,0.2 0.99414,0.5996 0.16587,0.3996 0.25,1.1161 0.25,2.1484 l 0,13.086 7.58789,0 0,-13.086 c 0,-1.8315 0.41479,-2.748 1.24414,-2.748 0.46996,0 0.78725,0.2 0.95312,0.5996 0.16587,0.3996 0.25,1.1161 0.25,2.1484 l 0,13.086 7.58789,0 0,-13.9356 c 0,-2.8305 -0.38805,-4.9626 -1.16211,-6.3945 -0.74641,-1.4652 -1.71361,-2.5798 -2.90234,-3.3457 -1.18873,-0.7659 -2.45986,-1.1484 -3.81445,-1.1484 -1.96279,0 -3.93926,1.1475 -5.92969,3.4453 -0.96757,-1.2322 -1.9214,-2.1137 -2.86133,-2.6465 -0.93992,-0.5328 -2.00463,-0.7988 -3.19336,-0.7988 z m -67.681639,0 c -2.515679,0 -4.643141,1.0815 -6.384765,3.2461 -1.741624,2.1645 -2.613282,4.8286 -2.613282,7.9921 l 0,13.586 7.589844,0 0,-13.7363 c 0,-0.6328 0.124244,-1.1318 0.373047,-1.4981 0.276448,-0.3996 0.620484,-0.5996 1.035156,-0.5996 0.939924,0 1.410157,0.699 1.410157,2.0977 l 0,13.7363 7.589843,0 0,-12.836 c 0,-3.663 -0.816221,-6.5776 -2.447265,-8.7421 -1.631045,-2.1646 -3.815897,-3.2461 -6.552735,-3.2461 z m 115.546879,-8.4922 0,20.0312 c 0,2.9971 0.42816,5.4612 1.28515,7.3926 0.85699,1.9315 2.08801,3.4635 3.69141,4.5957 1.6034,1.1322 3.35813,1.6973 5.26562,1.6973 l 0.8711,-0.051 0,-9.5899 c -1.29931,0 -2.17097,-0.3165 -2.61328,-0.9492 -0.44232,-0.6327 -0.70418,-1.1977 -0.78711,-1.6972 -0.0829,-0.4995 -0.125,-1.317 -0.125,-2.4493 l 3.40039,0 0,-9.6406 -3.40039,0 0,-9.3398 -7.58789,0 z m -89.669926,0 0,19.9297 c 0,3.2634 -0.967206,4.8964 -2.902343,4.8964 -0.8017,0 -1.493678,-0.3339 -2.074219,-1 -0.580541,-0.666 -0.871094,-1.4815 -0.871094,-2.4472 0,-0.9657 0.277182,-1.7987 0.830078,-2.4981 0.552897,-0.6993 1.22955,-1.0488 2.03125,-1.0488 0.635831,0 1.259002,0.2835 1.867188,0.8496 l 0,-10.041 -2.033203,-0.1484 c -2.819773,0 -5.251158,1.2485 -7.296875,3.7461 -2.045717,2.4975 -3.06836,5.4781 -3.06836,8.9414 0,3.5631 1.036013,6.5592 3.109375,8.9902 2.073362,2.431 4.617574,3.6465 7.63086,3.6465 3.013286,0 5.486737,-1.2641 7.421875,-3.7949 1.962782,-2.5642 2.943359,-5.8127 2.943359,-9.7422 l 0,-20.2793 -7.587891,0 z m 108.285156,-1.8477 c -1.0505,0 -1.9489,0.433 -2.69531,1.2988 -0.74641,0.8659 -1.11914,1.8969 -1.11914,3.0958 0,1.2987 0.35936,2.3472 1.07812,3.1464 0.71877,0.7993 1.63054,1.1993 2.73633,1.1993 1.13344,0 2.04716,-0.4 2.73828,-1.1993 0.69112,-0.7992 1.03516,-1.8477 1.03516,-3.1464 0,-1.1989 -0.37273,-2.2299 -1.11914,-3.0958 -0.74641,-0.8658 -1.63144,-1.2988 -2.6543,-1.2988 z m -172.550984,7.3213 12.801189,0 0,28 -12.801189,0 z m 15.254048,-8.6344 A 8.8534545,6.9003295 0 0 1 25,1019.3361 8.8534545,6.9003295 0 0 1 16.146546,1012.4357 8.8534545,6.9003295 0 0 1 25,1005.5354 a 8.8534545,6.9003295 0 0 1 8.853454,6.9003 z" />
  </g>
</svg>
